<!--
[INPUT]: 依赖与工作台同源的 Lucide 1.51.0 官方相机图形；宿主入口提供实时尺寸、颜色、viewBox描边换算和整体透明度。
[OUTPUT]: 提供帽子右侧的独立相机图标，离线默认描边由运行适配器覆盖，不内置像素尺寸或单笔透明度。
[POS]: PDSH 截图入口资产；构建期内联，不改变原生搜索 SVG。
[PROTOCOL]: 变更时更新此头部，然后检查 CLAUDE.md
-->
<svg xmlns="http://www.w3.org/2000/svg" viewBox="0 0 24 24" fill="none" stroke="currentColor" stroke-width="1.5" stroke-linecap="round" stroke-linejoin="round"><path d="M13.997 4a2 2 0 0 1 1.76 1.05l.486.9A2 2 0 0 0 18.003 7H20a2 2 0 0 1 2 2v9a2 2 0 0 1-2 2H4a2 2 0 0 1-2-2V9a2 2 0 0 1 2-2h1.997a2 2 0 0 0 1.759-1.048l.489-.904A2 2 0 0 1 10.004 4z" /> <circle cx="12" cy="13" r="3" /></svg>
